# xmcd
#
# Track frame offsets: 
#        150
#        12047
#        51758
#        70512
#        100539
#        131933
#        157176
#        183614
#        204310
#        226507
#
# Disc length: 3230 seconds
#
# Revision: 0
# Processed by: cddbd v1.5.2PL0 Copyright (c) Steve Scherf et al.
# Submitted via: ExactAudioCopy v1.0b3
#
DISCID=790c9c0a
DTITLE=John John Festival - forget me not
DYEAR=2016
DGENRE=Celtic
TTITLE0=Miss Irene Meldrum’s Welcome to Bon Accord
TTITLE1=January Fifteenth
TTITLE2=Sweet Forget-Me-Not
TTITLE3=Gently Stream
TTITLE4=Rosso
TTITLE5=By The Time It Gets Dark
TTITLE6=The Perth
TTITLE7=Fiddler’s Fanfare
TTITLE8=果ての世界からの声の便り
TTITLE9=Planxty Dermot Grogan
EXTD=
EXTT0=
EXTT1=
EXTT2=
EXTT3=
EXTT4=
EXTT5=
EXTT6=
EXTT7=
EXTT8=
EXTT9=
PLAYORDER=
